<?xml version="1.0" standalone="no"?> <!DOCTYPE svg PUBLIC "-//W3C//DTD SVG 1.0//EN" "http://www.w3.org/TR/2001/REC-SVG-20010904/DTD/svg10.dtd" > <svg xmlns="http://www.w3.org/2000/svg" width="100%" height="100%">
<defs >
<font horiz-adv-x="643" ><font-face
    font-family="FREAK Grotesk Next"
    units-per-em="1000"
    panose-1="2 0 8 0 0 0 0 0 0 0"
    ascent="700"
    descent="-300"
    alphabetic="0" />
<missing-glyph horiz-adv-x="500" />
<glyph unicode=" " horiz-adv-x="270" />
<glyph unicode="!" horiz-adv-x="268" d="M75 701H193L179 209H89L75 701ZM69 129H199V0H69V129Z" />
<glyph unicode="&quot;" horiz-adv-x="346" d="M208 690H308V423H208V690ZM38 690H138V423H38V690Z" />
<glyph unicode="#" horiz-adv-x="722" d="M409 286L435 414H313L287 286H409ZM176 202H62V286H194L220 414H102V502H238L284 700H378L331 487H453L498 700H592L546 498H660V414H528L502 286H620V198H484L439 0H346L391 213H269L225 0H132L176 202Z" />
<glyph unicode="$" horiz-adv-x="536" d="M220 -6Q182 1 148 16T87 56T41 113T15 188L135 214Q142 157 181 130T278 103Q333 103 363 125T393 197Q393 230 369 251T307 288T227 322T147 363T86 424T61 515Q61 552 73 582T108 635T158 674T220 697V810H318V699Q371
691 413 664T483 586L383 527Q365 561 336 577T272 593Q235 593 210 573T184 520Q184 489 208 470T270 434T350 401T430 359T491 296T516 200Q516 156 501 120T458 57T395 14T318 -8V-120H220V-6Z" />
<glyph unicode="%" horiz-adv-x="746" d="M512 710H615L229 -10H126L512 710ZM174 375Q133 375 107 391T64 433T42 486T35 538Q35 562 41 590T63 643T105 684T171 701Q207 701 233 686T276 647T301 594T309 537Q309 509 301 481T277 429T235 390T174 375ZM172
459Q195 459 208 482T221 538Q221 570 208 593T171 616Q147 616 134 593T121 538Q121 506 134 483T172 459ZM578 -5Q537 -5 511 12T468 54T446 107T439 160Q439 184 445 213T467 267T509 309T575 326Q611 326 637 311T680 271T705 218T713 160Q713 132 705 103T681
49T639 10T578 -5ZM577 79Q599 79 612 103T625 161Q625 194 612 217T575 241Q552 241 539 218T525 160Q525 127 538 103T577 79Z" />
<glyph unicode="&amp;" horiz-adv-x="601" d="M466 69Q416 24 363 7T248 -11Q205 -11 165 -1T94 31T45 87T26 169Q26 207 44 240T88 299T141 345T185 374Q174 386 160 402T134 439T113 483T104 533Q104 572 120 603T164 655T225 687T297 698Q334 698 366 686T424
652T463 600T478 533Q478 501 464 473T429 423T388 383T352 356L449 249Q454 262 458 278T464 308Q467 324 468 340L584 328Q584 328 581 312T572 270T557 214T534 157L649 33L561 -37L466 69ZM279 424Q291 433 306 445T335 473T358 503T368 533Q368 559 348 577T299
595Q265 595 242 579T219 532Q219 520 225 505T241 474T261 446T279 424ZM250 90Q293 90 328 104T390 144L257 299Q242 289 222 273T184 239T154 202T141 166Q141 123 171 107T250 90Z" />
<glyph unicode="&apos;" horiz-adv-x="170" d="M35 704H135V437H35V704Z" />
<glyph unicode="(" horiz-adv-x="308" d="M165 -224Q136 -185 114 -126T77 0T53 135T45 263Q45 332 53 400T76 531T113 650T163 750H270Q203 644 171 526T139 262Q139 187 147 122T171 -2T211 -116T269 -224H165Z" />
<glyph unicode=")" horiz-adv-x="308" d="M39 -224Q105 -117 137 1T169 262Q169 394 138 520T38 750H145Q198 666 230 540T263 264Q263 204 255 135T232 -2T194 -127T143 -224H39Z" />
<glyph unicode="*" horiz-adv-x="380" d="M54 457L131 535L20 550L50 632L152 592L138 690H233L219 592L321 632L350 550L239 535L316 457L239 407L185 509L131 407L54 457Z" />
<glyph unicode="+" horiz-adv-x="646" d="M278 260H55V350H278V558H368V350H591V260H368V52H278V260Z" />
<glyph unicode="," horiz-adv-x="225" d="M79 129H216L109 -110H30L79 129Z" />
<glyph unicode="-" horiz-adv-x="435" d="M75 350H360V260H75V350Z" />
<glyph unicode="." horiz-adv-x="202" d="M41 129H161V0H41V129Z" />
<glyph unicode="/" horiz-adv-x="460" d="M365 740H476L95 -210H-16L365 740Z" />
<glyph unicode="0" horiz-adv-x="586" d="M300 -10Q220 -10 166 25T80 113T34 228T20 345Q20 400 33 462T78 578T162 666T293 701Q364 701 416 670T503 587T555 472T572 344Q572 280 556 217T506 103T421 22T300 -10ZM297 107Q336 107 364 129T410 186T436 263T444
346Q444 388 436 430T409 505T362 560T293 582Q252 582 224 561T177 505T151 429T142 345Q142 304 150 262T177 185T225 129T297 107Z" />
<glyph unicode="1" horiz-adv-x="382" d="M180 503H27V597H111Q146 597 165 616T185 671V690H302V0H180V503Z" />
<glyph unicode="2" horiz-adv-x="558" d="M15 98Q16 99 41 114T104 156T186 217T270 291Q317 337 348 386T380 482Q380 531 357 559T280 588Q249 588 227 576T192 542T171 494T163 439L42 447Q42 495 58 540T105 621T180 677T279 699Q328 699 369 684T440 642T487
577T504 491Q504 453 491 416T455 342T405 273T346 212Q311 178 278 153T219 112H538V0H15V98Z" />
<glyph unicode="3" horiz-adv-x="556" d="M266 -10Q215 -10 169 4T87 46T31 118T10 218L128 225Q128 196 138 174T168 136T212 112T266 104Q294 104 319 111T363 131T393 163T404 209Q404 260 368 285T275 311H205V421H275Q318 421 342 442T366 502Q366 541 337
563T264 585Q219 585 190 559T160 487L43 495Q43 544 61 582T109 646T179 686T264 700Q307 700 347 688T417 651T466 591T485 511Q485 471 469 436T425 375Q476 347 498 303T522 206Q522 152 501 112T445 44T364 4T266 -10Z" />
<glyph unicode="4" horiz-adv-x="566" d="M324 162H5V234L342 690H446V275H556V162H446V0H324V162ZM324 275V500L164 275H324Z" />
<glyph unicode="5" horiz-adv-x="561" d="M288 -10Q241 -10 200 6T127 51T71 118T39 200L154 232Q159 208 168 185T194 144T233 114T288 102Q316 102 339 113T379 144T405 187T415 236Q415 261 407 284T382 325T342 352T288 363Q254 363 222 346T171 299L59 327L126
690H510V576H224L199 447Q228 462 254 468T306 474Q354 474 397 455T472 404T522 328T541 235Q541 186 521 142T467 64T386 10T288 -10Z" />
<glyph unicode="6" horiz-adv-x="572" d="M300 -10Q248 -10 202 8T122 59T69 135T49 228Q49 296 86 350L293 690H435L286 463H301Q352 463 398 446T478 398T532 325T552 232Q552 184 533 140T481 63T401 10T300 -10ZM301 106Q328 106 351 116T392 143T420 182T431
231Q431 257 421 279T393 319T352 346T301 356Q274 356 250 346T209 319T181 280T170 231Q170 205 180 183T208 143T250 116T301 106Z" />
<glyph unicode="7" horiz-adv-x="518" d="M358 577H10V690H508V627L202 0H65L358 577Z" />
<glyph unicode="8" horiz-adv-x="580" d="M289 -10Q240 -10 194 3T113 42T57 107T35 200Q35 257 62 301T135 373Q103 400 87 435T70 512Q70 557 88 592T137 651T207 687T290 700Q333 700 372 688T442 651T491 592T510 512Q510 470 493 435T445 373Q494 344 519
300T545 200Q545 146 524 107T467 41T385 3T289 -10ZM292 419Q336 419 364 441T392 502Q392 543 364 565T291 587Q251 587 222 566T192 508Q192 467 219 443T292 419ZM289 101Q316 101 340 108T383 128T411 162T422 208Q422 260 384 287T289 314Q231 314 194 287T156
208Q156 182 166 162T195 129T238 108T289 101Z" />
<glyph unicode="9" horiz-adv-x="566" d="M291 227H276Q225 227 179 244T99 292T45 365T25 458Q25 506 44 550T96 627T176 680T277 700Q329 700 375 682T455 631T508 555T528 462Q528 394 491 340L284 0H142L291 227ZM276 334Q303 334 327 344T368 371T396 410T407
459Q407 485 397 507T369 547T327 574T276 584Q249 584 226 574T185 547T157 508T146 459Q146 433 156 411T184 371T225 344T276 334Z" />
<glyph unicode=":" horiz-adv-x="200" d="M35 466H165V337H35V466ZM35 129H165V0H35V129Z" />
<glyph unicode=";" horiz-adv-x="240" d="M75 466H205V337H75V466ZM79 129H216L109 -110H30L79 129Z" />
<glyph unicode="&lt;" horiz-adv-x="603" d="M28 329L509 584L559 497L221 329L559 161L509 74L28 329Z" />
<glyph unicode="=" horiz-adv-x="535" d="M65 468H470V367H65V468ZM65 289H470V188H65V289Z" />
<glyph unicode="&gt;" horiz-adv-x="603" d="M44 161L382 329L44 497L94 584L575 329L94 74L44 161Z" />
<glyph unicode="?" horiz-adv-x="504" d="M202 278Q202 318 214 342T244 383T283 409T323 432T353 461T365 507Q365 556 334 578T252 601Q192 601 166 571T140 484H35Q35 587 93 643T248 700Q292 700 332 688T402 651T451 590T469 505Q469 460 457 431T426 382T386
350T346 327T316 305T303 277V207H202V278ZM189 129H319V0H189V129Z" />
<glyph unicode="@" horiz-adv-x="978" d="M493 -170Q401 -170 320 -136T179 -42T84 96T49 265Q49 355 84 434T179 572T320 665T493 699Q585 699 666 665T807 571T902 431T937 260Q937 209 924 156T883 60T811 -10T703 -37Q647 -37 612 -5T573 78Q511 21 429 21Q388
21 357 37T306 81T276 142T266 213Q266 263 281 317T327 415T402 489T507 518Q544 518 577 501T630 452L639 494H735Q725 443 713 393T689 293T669 196T661 102Q661 81 673 71T706 60Q744 60 770 79T812 128T836 194T844 263Q844 334 816 396T741 506T629 580T493
608Q421 608 357 581T246 508T170 399T142 267Q142 197 170 135T245 27T357 -47T493 -74Q522 -74 550 -69T607 -55L640 -144Q568 -170 493 -170ZM438 116Q477 116 507 136T557 187T587 256T598 330Q598 373 579 398T516 423Q477 423 447 403T397 353T367 284T356
210Q356 167 375 142T438 116Z" />
<glyph unicode="A" horiz-adv-x="654" d="M420 256L328 507L236 256H420ZM281 690H374L649 0H515L462 150H194L140 0H5L281 690Z" />
<glyph unicode="B" horiz-adv-x="591" d="M75 690H314Q353 690 392 680T463 648T515 591T535 503Q535 456 511 421T458 369Q482 360 502 342T537 301T560 252T569 200Q569 152 551 115T501 52T429 13T344 0H75V690ZM326 412Q344 412 361 415T391 428T413 454T421
496Q421 537 391 557T316 578H199V412H326ZM346 118Q394 118 420 141T447 214Q447 251 419 278T341 305H199V118H346Z" />
<glyph unicode="C" horiz-adv-x="704" d="M378 -10Q293 -10 230 19T126 96T65 209T44 345Q44 416 64 480T125 594T229 672T377 701Q480 701 558 651T679 503L563 457Q543 526 494 554T376 583Q321 583 282 565T217 515T179 441T167 350Q167 299 179 255T217 178T282
127T378 108Q445 108 491 137T565 236L680 189Q638 92 560 41T378 -10Z" />
<glyph unicode="D" horiz-adv-x="676" d="M75 690H275Q452 690 543 599T634 340Q634 178 542 89T274 0H75V690ZM262 114Q319 114 365 126T443 165T492 236T510 345Q510 467 455 521T273 576H199V114H262Z" />
<glyph unicode="E" horiz-adv-x="577" d="M75 690H534V576H199V402H521V288H199V117H534V0H75V690Z" />
<glyph unicode="F" horiz-adv-x="569" d="M75 690H564V576H199V402H521V288H199V0H75V690Z" />
<glyph unicode="G" horiz-adv-x="752" d="M378 -10Q293 -10 230 19T126 96T65 209T44 345Q44 416 64 480T125 594T228 672T377 701Q480 701 558 651T678 503L568 457Q544 528 493 560T376 593Q321 593 282 573T217 520T179 442T167 350Q167 299 179 254T217 174T282
121T378 101Q415 101 448 113T506 147T549 202T571 273H414V373H691V0H593L582 97Q547 49 497 20T378 -10Z" />
<glyph unicode="H" horiz-adv-x="700" d="M75 690H199V402H501V690H625V0H501V288H199V0H75V690Z" />
<glyph unicode="I" horiz-adv-x="274" d="M75 690H199V0H75V690Z" />
<glyph unicode="J" horiz-adv-x="527" d="M238 -10Q185 -10 144 8T72 56T25 128T5 215L127 229Q129 203 136 181T156 142T190 115T238 105Q272 105 293 114T326 142T342 186T347 247V576H87V690H471V249Q471 194 459 147T418 65T346 10T238 -10Z" />
<glyph unicode="K" horiz-adv-x="691" d="M75 690H199V330L545 690H711L428 405L696 0H548L342 322L199 179V0H75V690Z" />
<glyph unicode="L" horiz-adv-x="500" d="M75 690H199V117H494V0H75V690Z" />
<glyph unicode="M" horiz-adv-x="850" d="M75 690H242L425 199L608 690H775V0H656V515L485 60H365L194 515V0H75V690Z" />
<glyph unicode="N" horiz-adv-x="682" d="M75 690H198L488 207V690H607V0H483L194 483V0H75V690Z" />
<glyph unicode="O" horiz-adv-x="744" d="M372 -10Q286 -10 224 19T120 97T59 210T39 345Q39 415 59 479T120 593T223 671T372 700Q457 700 520 671T624 593T685 480T705 345Q705 274 685 210T624 97T520 19T372 -10ZM372 100Q427 100 465 120T528 173T563 251T574
345Q574 394 563 438T528 516T466 570T372 590Q316 590 278 570T215 516T181 438T170 345Q170 296 180 252T215 174T277 120T372 100Z" />
<glyph unicode="P" horiz-adv-x="541" d="M75 690H291Q344 690 388 677T465 637T516 573T535 487Q535 439 517 402T466 339T389 300T291 287H198V0H75V690ZM291 403Q355 403 383 424T412 487Q412 529 383 551T291 574H198V403H291Z" />
<glyph unicode="Q" horiz-adv-x="743" d="M557 41Q480 -10 372 -10Q286 -10 224 19T120 97T59 210T39 345Q39 415 59 479T120 593T223 671T372 700Q457 700 520 671T624 593T685 479T705 344Q705 278 688 218T637 111L736 17L656 -58L557 41ZM372 107Q401 107
425 112T469 127L375 213L455 286L547 201Q565 233 573 268T581 345Q581 394 569 437T532 512T467 564T372 583Q316 583 277 564T212 513T175 437T163 345Q163 296 175 253T212 178T276 126T372 107Z" />
<glyph unicode="R" horiz-adv-x="579" d="M309 396Q359 398 386 422T414 485Q414 527 384 552T299 578H200V396H309ZM75 689H298Q346 689 389 676T466 636T518 573T537 487Q537 421 499 374T402 307L594 -1H453L283 295H199V-1H75V689Z" />
<glyph unicode="S" horiz-adv-x="547" d="M288 -8Q242 -8 198 4T117 42T54 106T20 195L143 226Q146 197 158 175T190 138T235 115T288 107Q398 107 398 202Q398 220 389 234T362 259T322 279T273 298Q235 311 195 326T122 365T68 422T46 505Q46 551 66 587T120
649T194 687T278 700Q349 700 410 671T506 579L403 516Q385 551 351 570T278 590Q260 590 242 584T208 567T182 539T172 504Q172 468 212 447T325 399Q361 386 396 372T460 335T506 281T524 200Q524 152 506 114T456 48T381 7T288 -8Z" />
<glyph unicode="T" horiz-adv-x="566" d="M221 579H5V690H561V579H345V0H221V579Z" />
<glyph unicode="U" horiz-adv-x="640" d="M322 -10Q253 -10 203 10T121 66T73 154T58 269V690H182V283Q182 241 188 209T210 155T253 122T322 110Q364 110 391 121T433 155T455 209T462 283V690H586V274Q586 209 571 157T524 67T441 10T322 -10Z" />
<glyph unicode="V" horiz-adv-x="654" d="M5 690H142L328 201L513 690H649L374 0H281L5 690Z" />
<glyph unicode="W" horiz-adv-x="964" d="M5 690H134L281 182L434 630H530L683 182L830 690H959L752 0H632L482 434L332 0H212L5 690Z" />
<glyph unicode="X" horiz-adv-x="642" d="M236 345L6 690H154L321 424L488 690H636L406 345L637 0H489L320 262L153 0H5L236 345Z" />
<glyph unicode="Y" horiz-adv-x="695" d="M286 269L5 690H151L348 380L544 690H690L410 269V0H286V269Z" />
<glyph unicode="Z" horiz-adv-x="610" d="M27 86L412 576H49V690H583V600L200 112H583V0H27V86Z" />
<glyph unicode="[" horiz-adv-x="352" d="M83 750H294V671H179V-133H294V-213H83V750Z" />
<glyph unicode="\" horiz-adv-x="460" d="M-16 740H95L476 -210H365L-16 740Z" />
<glyph unicode="]" horiz-adv-x="352" d="M58 -133H173V671H58V750H269V-213H58V-133Z" />
<glyph unicode="^" horiz-adv-x="578" d="M289 731L498 393H380L289 540L199 393H81L289 731Z" />
<glyph unicode="_" horiz-adv-x="485" d="M35 0H450V-90H35V0Z" />
<glyph unicode="a" horiz-adv-x="523" d="M203 -10Q169 -9 139 2T87 34T51 82T37 146Q37 188 53 216T96 260T159 284T237 291H359Q359 336 340 363T271 392H263Q226 392 197 372T153 325L62 391Q100 442 149 469T267 496H276Q324 495 361 480T425 439T464 376T478
296V0H377L364 70Q332 24 296 7T211 -10H203ZM237 91Q262 91 284 100T323 125T349 161T359 205H244Q203 205 181 187T159 146Q159 123 178 108T230 91H237Z" />
<glyph unicode="b" horiz-adv-x="572" d="M334 -10Q294 -10 257 3T194 49V0H75V690H194V439Q222 473 258 485T334 498H338Q387 497 425 476T489 420T528 340T542 244Q542 194 529 148T489 67T424 11T336 -10H334ZM305 100Q335 100 357 111T393 141T415 187T422
244Q422 274 415 301T394 347T357 378T305 390H304Q274 390 253 379T217 348T195 302T188 244Q188 213 195 187T216 142T252 111T304 100H305Z" />
<glyph unicode="c" horiz-adv-x="485" d="M271 -10Q211 -10 167 11T94 68T50 149T35 243Q35 291 49 336T93 417T166 474T270 496H271Q344 496 398 458T481 354L368 310Q358 345 333 364T272 384H270Q239 384 218 372T183 341T163 296T156 243Q156 215 162 190T181
145T217 114T270 102H272Q307 103 332 122T368 176L476 135Q452 67 399 29T274 -10H271Z" />
<glyph unicode="d" horiz-adv-x="579" d="M243 -10Q193 -10 155 10T90 66T49 147T35 244Q35 295 49 341T89 422T154 477T243 498H244Q284 498 320 485T383 439V690H502V0H383V49Q355 15 319 3T244 -10H243ZM275 100Q334 101 361 141T388 244Q388 275 382 301T361
347T326 378T274 390H273Q243 390 221 379T185 348T163 301T156 244Q156 213 163 187T184 142T221 111T273 100H275Z" />
<glyph unicode="e" horiz-adv-x="525" d="M279 -6Q218 -6 172 14T96 69T50 147T35 241Q35 289 49 334T93 415T166 472T270 494H272Q338 494 382 472T452 415T489 334T500 242Q500 234 500 227T498 215Q497 209 496 205H161Q167 160 195 133T278 105H279Q318 105
346 114T400 150L482 78Q439 32 390 13T281 -6H279ZM383 291Q377 340 351 366T272 394H270Q220 394 195 365T161 291H383Z" />
<glyph unicode="f" horiz-adv-x="348" d="M101 380H12V487H102V553Q102 589 114 616T149 662T199 690T259 700H260Q283 700 304 695T346 680L307 582Q302 584 296 587Q291 589 285 590T270 592H269Q248 592 234 581T220 551V488H338V380H220V0H101V380Z" />
<glyph unicode="g" horiz-adv-x="518" d="M275 -224Q238 -224 196 -217T117 -190T56 -138T32 -54Q32 -28 37 -14T42 3L100 25Q84 37 73 51T55 79T45 107T41 132Q41 162 56 189T93 238Q73 275 73 319Q73 359 88 391T131 446T194 481T272 494H274Q297 494 319 489T360
476L444 554L514 464L441 414Q455 392 462 369T470 316Q470 275 455 242T413 186T351 151T275 138H272Q243 138 217 144T170 161Q152 141 152 127Q152 107 184 98T289 87H290Q401 86 452 51T503 -66Q503 -146 449 -185T276 -224H275ZM277 -126Q343 -126 372 -113T402
-71Q402 -45 375 -34T287 -22H285Q248 -22 226 -21T183 -16L131 -56Q134 -72 146 -85T177 -107T222 -121T276 -126H277ZM275 233Q313 233 334 257T355 317Q355 352 335 377T277 404H274Q234 404 213 379T192 317Q192 281 213 257T274 233H275Z" />
<glyph unicode="h" horiz-adv-x="580" d="M75 690H194V436Q221 471 255 485T325 499H329Q380 498 415 480T473 431T505 363T515 286V0H396V280Q396 323 381 351T323 382H316Q294 382 274 375T238 356T210 328T194 294V0H75V690Z" />
<glyph unicode="i" horiz-adv-x="261" d="M71 0V488H190V0H71ZM68 689H193V579H68V689Z" />
<glyph unicode="j" horiz-adv-x="261" d="M44 -214Q28 -214 14 -212T-13 -206Q-27 -202 -39 -198L-9 -95Q-1 -97 7 -99Q20 -102 39 -102H40Q58 -102 63 -93T68 -60V488H187V-51Q187 -85 179 -114T154 -166T109 -201T44 -214ZM68 689H192V569H68V689Z" />
<glyph unicode="k" horiz-adv-x="525" d="M75 690H194V318H225L378 488H533L350 299L553 0H412L278 211H194V0H75V690Z" />
<glyph unicode="l" horiz-adv-x="288" d="M180 -10Q158 -10 139 -6T106 11T83 43T75 97V690H194V130Q194 97 236 97H238Q241 97 245 97T255 98Q260 99 266 100V0Q252 -3 237 -5Q209 -10 181 -10H180Z" />
<glyph unicode="m" horiz-adv-x="847" d="M75 488H194V437Q218 470 251 483T316 497H322Q367 495 400 476T457 422Q486 460 528 478T617 496H620Q667 496 700 478T756 432T788 367T798 293V0H678V278Q678 323 662 354T601 386H598Q550 386 524 352T497 268V0H378V280Q378
325 361 355T298 386H297Q249 386 222 352T194 268V0H75V488Z" />
<glyph unicode="n" horiz-adv-x="582" d="M75 488H194V431Q223 467 261 481T336 496H337Q385 496 419 479T475 433T507 368T517 293V0H398V278Q398 300 394 320T381 354T357 376T318 385H317Q292 385 270 375T231 349T204 311T194 267V0H75V488Z" />
<glyph unicode="o" horiz-adv-x="570" d="M285 -10Q228 -10 182 10T101 64T49 144T30 242Q30 294 48 339T101 419T181 474T285 494H290Q346 493 392 473T471 419T522 339T540 242Q540 191 522 146T470 66T391 12T290 -10H285ZM289 93Q322 94 345 106T382 138T404
185T411 242Q411 271 405 297T384 344T346 377T291 391H285Q251 391 227 379T188 347T166 299T159 242Q159 212 166 185T188 138T227 105T285 93H289Z" />
<glyph unicode="p" horiz-adv-x="574" d="M75 488H194V439Q222 473 259 485T336 498H340Q389 498 427 477T491 421T530 340T544 244Q544 194 531 148T492 67T428 11T341 -10H336Q296 -10 258 3T194 49V-214H75V488ZM310 100Q338 100 359 111T395 141T416 187T423
244Q423 274 416 301T395 348T360 379T310 391H306Q276 391 254 380T218 348T197 302T190 244Q190 213 197 187T218 142T254 111T306 100H310Z" />
<glyph unicode="q" horiz-adv-x="573" d="M379 49Q352 16 316 4T242 -10H238Q188 -10 150 10T85 66T44 147T30 244Q30 295 44 341T84 422T149 477T238 498H242Q281 497 317 484T379 439V488H498V-214H379V49ZM272 100Q330 102 356 142T383 244Q383 305 357 346T272
390H268Q238 390 216 379T180 348T158 301T151 244Q151 213 158 187T179 142T216 111T268 100H272Z" />
<glyph unicode="r" horiz-adv-x="391" d="M192 426Q218 464 247 479T308 495H309Q333 495 361 488T411 463L357 365Q346 374 335 378T304 382H303Q278 382 258 370T224 337T202 288T194 226V0H75V488H192V426Z" />
<glyph unicode="s" horiz-adv-x="440" d="M225 -10Q186 -10 153 1T93 30T48 74T20 127L115 169Q120 156 127 142T147 116T177 97T219 89H222Q262 90 280 109T298 147Q298 171 278 186T216 202H209Q175 203 147 211T97 236T65 281T53 346Q53 385 68 413T108 459T164
486T229 495H234Q299 493 344 462T412 388L327 342Q314 364 293 382T234 401H230Q201 401 184 385T167 352Q167 329 183 318T237 306H241Q278 306 309 297T364 269T401 221T415 153Q415 111 399 81T356 30T297 0T229 -10H225Z" />
<glyph unicode="t" horiz-adv-x="356" d="M247 -10Q164 -10 129 25T94 135V380H15V488H96V569L212 614V488H335V380H212V152Q212 132 224 116T265 100Q279 100 292 102T315 107Q326 111 335 115V5Q323 1 309 -3Q297 -6 281 -8T247 -10Z" />
<glyph unicode="u" horiz-adv-x="576" d="M240 -11Q193 -10 160 7T105 52T73 119T63 201V488H182V207Q182 163 198 133T258 102H262Q287 102 309 111T349 137T376 174T387 218V488H506V0H387V59Q361 24 323 7T244 -11H240Z" />
<glyph unicode="v" horiz-adv-x="506" d="M5 488H135L253 155L372 488H501L302 0H204L5 488Z" />
<glyph unicode="w" horiz-adv-x="717" d="M5 488H132L214 185L307 488H409L502 184L585 488H712L561 0H454L358 320L262 -2H155L5 488Z" />
<glyph unicode="x" horiz-adv-x="503" d="M172 246L5 488H150L251 327L352 488H498L330 246L498 0H352L252 165L150 0H5L172 246Z" />
<glyph unicode="y" horiz-adv-x="520" d="M196 13L5 488H136L260 149L384 488H515L236 -210H106L196 13Z" />
<glyph unicode="z" horiz-adv-x="478" d="M15 79L283 380H29V488H445V403L181 101H445V0H15V79Z" />
<glyph unicode="{" horiz-adv-x="380" d="M238 -250Q204 -250 183 -234T147 -194Q137 -178 133 -154T129 -97V121Q129 134 123 144T108 161T88 174T65 185V270Q97 282 113 300T129 354V609Q129 676 157 713T249 750H274Q285 750 295 750T315 748V667Q302 670 286
672T265 674Q243 674 237 668T230 648V346Q230 299 210 272T161 224Q192 207 211 182T230 123V-94Q230 -129 240 -150T279 -172Q293 -172 315 -167V-248Q305 -249 295 -249T273 -250H238Z" />
<glyph unicode="|" horiz-adv-x="254" d="M83 749H171V-250H83V749Z" />
<glyph unicode="}" horiz-adv-x="380" d="M107 -250Q96 -250 86 -250T65 -248V-167Q87 -172 101 -172Q130 -172 140 -151T150 -94V123Q150 157 169 182T219 224Q190 244 170 271T150 346V648Q150 662 144 668T115 674Q110 674 94 672T65 667V748Q75 749 85 749T106
750H131Q195 750 223 713T251 609V354Q251 318 267 300T315 270V185Q304 180 293 175T272 162T257 144T251 121V-97Q251 -130 247 -154T233 -194Q219 -217 198 -233T142 -250H107Z" />
<glyph unicode="~" horiz-adv-x="466" d="M310 185Q275 185 251 193T209 210T176 227T147 235Q127 235 123 227T118 198H35Q35 261 65 289T146 318Q185 318 211 311T255 294T286 278T313 270Q335 270 340 280T345 315H432Q432 185 310 185Z" />
</font>
</defs>
</svg>
